PathFileType	4	(X/Y/Z)	pose_F01_0-96.trc
DataRate	CameraRate	NumFrames	NumMarkers	Units	OrigDataRate	OrigDataStartFrame	OrigNumFrames
30	30	7	21	m	30	36	96
Frame#	Time	CHip			RHip			RKnee			RAnkle			RBigToe			RSmallToe			RHeel			LHip			LKnee			LAnkle			LBigToe			LSmallToe			LHeel			Neck			Nose			RShoulder			RElbow			RWrist			LShoulder			LElbow			LWrist			
		X1	Y1	Z1	X2	Y2	Z2	X3	Y3	Z3	X4	Y4	Z4	X5	Y5	Z5	X6	Y6	Z6	X7	Y7	Z7	X8	Y8	Z8	X9	Y9	Z9	X10	Y10	Z10	X11	Y11	Z11	X12	Y12	Z12	X13	Y13	Z13	X14	Y14	Z14	X15	Y15	Z15	X16	Y16	Z16	X17	Y17	Z17	X18	Y18	Z18	X19	Y19	Z19	X20	Y20	Z20	X21	Y21	Z21	
36	1.2	-0.2361429502074856	1.8751127201241893	-0.5654743607116091	-0.2531056376912559	1.874514964065369	-0.495329995592659	-0.27194116741825614	1.6999100216967697	-0.40200007851594505	-0.2295423504464595	1.5651530248106078	-0.4475074485727219	-0.2585302240289419	1.5237095425407883	-0.447849993645157	-0.2557138992844674	1.5314121090978758	-0.42455959056682596	-0.2234731090876977	1.558611322005674	-0.4672944854519867	-0.21764438501779274	1.8732375563926713	-0.6352473616448033	-0.22757462671529133	1.705341640372636	-0.665355728718589	-0.20790868963019787	1.545166498331249	-0.6606615666610082	-0.322982558684379	1.4805553134111025	-1.0216044974845757	-0.30910412958945443	1.4812955643949892	-1.0548897384790799	-0.20290123874090427	1.5317057977730932	-0.643060339657391	-0.23185989054333006	2.0631711381685065	-0.6086467943957514	-0.25361779568380916	2.134771183264226	-0.5818835051003389	-0.25835843574576195	2.0615275385601657	-0.5103643676752719	-0.2996784031277057	2.0385528398993316	-0.5304592991416068	-0.24206586320981965	2.046929086855181	-0.6846894757851261	-0.20496935772553374	2.065370097813971	-0.7079638080990105	-0.14113747062813461	2.003384014261927	-0.7958970818554779	-0.19398460229007639	1.9535280302377924	-0.7647164639043003
37	1.2333333333333334	-0.23769486933665726	1.8642595361156074	-0.5495278683453731	-0.2524354347304769	1.863634807304193	-0.4814764691836646	-0.2754266100454906	1.7037577320080628	-0.37092532710527437	-0.2295423504464595	1.5651530248106078	-0.4475074485727219	-0.2585302240289419	1.5237095425407883	-0.447849993645157	-0.2557138992844674	1.5314121090978758	-0.42455959056682596	-0.2234731090876977	1.558611322005674	-0.4672944854519867	-0.220321260793752	1.865047414237043	-0.622979575388026	-0.22794364147961435	1.708272852649678	-0.6654136526626634	-0.20935631249325914	1.5452610463017669	-0.6629169479709571	-0.3238644401876902	1.4800857223742356	-1.0246093462806238	-0.3091079909994464	1.481291758867645	-1.054988667891007	-0.2057047703433932	1.5321270951479318	-0.6400351640515681	-0.25336755411256073	2.0497138922945077	-0.5684607646931349	-0.28147803013690964	2.1243944980087974	-0.5325385128616807	-0.28065404427272583	2.044630806859346	-0.4677515445256456	-0.360517074998052	2.0264468145657117	-0.45224381354082127	-0.2637448550040472	2.0233043222443987	-0.5115470738389751	-0.2226358381544337	2.055518858277104	-0.669390337950631	-0.16634584042108122	2.0030076114778614	-0.749511312655981	-0.20873220062790734	1.9502085162652048	-0.7335950247906838
38	1.2666666666666666	-0.24062081936670712	1.8596990181209145	-0.532277892751479	-0.2549677824015607	1.8562918823267711	-0.45502191756517285	-0.28091479618780324	1.7021035174668568	-0.35044260146447936	-0.2295423504464595	1.5651530248106078	-0.4475074485727219	-0.2585302240289419	1.5237095425407883	-0.447849993645157	-0.2557138992844674	1.5314121090978758	-0.42455959056682596	-0.2234731090876977	1.558611322005674	-0.4672944854519867	-0.22261117278413428	1.8613167930843448	-0.6028976429693077	-0.22896319850472843	1.7051885111398872	-0.6597482239419032	-0.2084889946908048	1.5464254855959154	-0.6644202024083623	-0.32263150684359065	1.4804566913242694	-1.0319380885635205	-0.30776404404281654	1.4819051171413449	-1.061346324891536	-0.20464811989867188	1.5324670794563795	-0.6415864409875799	-0.26115809413708474	2.0419454870799085	-0.5304933153199655	-0.2916259787061212	2.1129697063741597	-0.4951189398779256	-0.28316775018858525	2.033711425012611	-0.4247354456317933	-0.361968017466015	2.0085155752728743	-0.4070759005996561	-0.2854238467982747	1.9996795576336168	-0.3384046718928241	-0.2354721335770108	2.0506214285665494	-0.6359135631210934	-0.1777290718872777	2.0022837672200278	-0.7173150669195886	-0.21795257812569668	1.9442072133498522	-0.7036840412907363
39	1.3	-0.24167955611058814	1.8605727814250126	-0.5182156600278714	-0.25587844871534754	1.8549149957579154	-0.44891600461182035	-0.27690985284979547	1.696931740442473	-0.3402928438630654	-0.2295423504464595	1.5651530248106078	-0.4475074485727219	-0.2585302240289419	1.5237095425407883	-0.447849993645157	-0.2557138992844674	1.5314121090978758	-0.42455959056682596	-0.2234731090876977	1.558611322005674	-0.4672944854519867	-0.22707749741527436	1.8636906745784068	-0.5900722227394422	-0.23373514300833334	1.702105345863698	-0.64627362523247	-0.20898754318545765	1.5466600758099522	-0.6636557459519329	-0.32264500151352804	1.481612076951749	-1.0328909654900278	-0.3077561512794863	1.481900425551803	-1.0614384841142832	-0.2037480587476645	1.5345444061041176	-0.6466362821087042	-0.27016177152199267	2.0388137336164656	-0.4992018150348359	-0.3010524803334414	2.104143316049681	-0.4510349838116432	-0.2882138060673494	2.0262293818014387	-0.3913831308952976	-0.31011769211077417	1.9862014769805314	-0.23964198491815294	-0.3071028385925022	1.976054793022835	-0.16526226994667303	-0.24857061879313408	2.0482362191954966	-0.6055104012028893	-0.18895862667347832	1.9996296264718634	-0.6962073246479094	-0.22648135490187088	1.9396802923452512	-0.6736403699824891
40	1.3333333333333333	-0.24643278629283996	1.858614580193576	-0.5078653177888925	-0.25937215748967885	1.8541811226731275	-0.43578735067508906	-0.2817999066286339	1.69366350610895	-0.3295855897940597	-0.2295423504464595	1.5651530248106078	-0.4475074485727219	-0.2585302240289419	1.5237095425407883	-0.447849993645157	-0.2557138992844674	1.5314121090978758	-0.42455959056682596	-0.2234731090876977	1.558611322005674	-0.4672944854519867	-0.233015017333614	1.8631266040647447	-0.5831958770075691	-0.238408651852561	1.7004676885889451	-0.6411559200867669	-0.20929273940200427	1.5454455725997094	-0.6631843056185561	-0.3227129804837088	1.4815287911368529	-1.0328476012883738	-0.30784651516730344	1.481901764639537	-1.06134519613471	-0.20225103848611448	1.535430421788739	-0.6481024754965469	-0.2710686473030756	2.036515098082142	-0.47630337619212915	-0.30279941244453273	2.103508984638869	-0.41799377120344516	-0.28719980419386987	2.024325648486263	-0.36499730400061714	-0.3122253530551351	1.9879359517232214	-0.1858819378700181	-0.32878183038672976	1.9524300284120528	0.0078801319994779	-0.2520435070874525	2.049514650196124	-0.5811209345056046	-0.19313009166868877	2.0037830493157944	-0.6815798733454214	-0.22835425721818528	1.9411454556750445	-0.6513951340443174
41	1.3666666666666667	-0.2504345071823382	1.8571184830366632	-0.5032088088086657	-0.2629614797631302	1.852481522953504	-0.43102826576166814	-0.2830612145909151	1.6947248680623146	-0.32815159720766013	-0.2295423504464595	1.5651530248106078	-0.4475074485727219	-0.2585302240289419	1.5237095425407883	-0.447849993645157	-0.2557138992844674	1.5314121090978758	-0.42455959056682596	-0.2234731090876977	1.558611322005674	-0.4672944854519867	-0.2391896601817622	1.8634668125145843	-0.5766523801434398	-0.2423669277427059	1.6975408098546694	-0.6367951425490425	-0.20824632093535686	1.5470231070114795	-0.6684848446038051	-0.3227038032690993	1.480296563005634	-1.0319527054201088	-0.31091230422088156	1.478954923267983	-1.0613141489294757	-0.20000413781709378	1.5375132810215526	-0.6588431569873823	-0.26953595116307894	2.0426120659898253	-0.4656321983758947	-0.29958311221470646	2.1019509243072214	-0.4085290499030307	-0.2817238974780116	2.029707895705042	-0.35851595253410157	-2.4196555898411183	1.941978203413236	2.355295129947454	-0.2787657379066825	1.9574065055984404	0.009122377737214653	-0.2540590070911718	2.055935698117245	-0.5716714339521314	-0.19784349770256876	2.0062036800226557	-0.6783224709189704	-0.23186646916997752	1.9399282200830876	-0.6523370664935331
42	1.4	-0.2569683411501983	1.8622203830561557	-0.49750552161670525	-0.26925547267154953	1.8604584859449065	-0.4258391072617616	-0.28312035603129443	1.6952664165769546	-0.3280751486797105	-0.2295423504464595	1.5651530248106078	-0.4475074485727219	-0.2585302240289419	1.5237095425407883	-0.447849993645157	-0.2557138992844674	1.5314121090978758	-0.42455959056682596	-0.2234731090876977	1.558611322005674	-0.4672944854519867	-0.24714882301964286	1.8655937545798174	-0.5732956887127232	-0.24096411639088866	1.6974463359628291	-0.6297792971595727	-0.20949235107275507	1.545963225453867	-0.671159382396565	-0.32581228200416384	1.48139113697151	-1.032457502270602	-0.31092869367468456	1.4804119472881225	-1.061127852638597	-0.19923564873195823	1.5369552143651017	-0.6638547937817574	-0.26429634509273775	2.0489509951714155	-0.46757413420630084	-0.29433401899677797	2.109409578645605	-0.4105068808263959	-0.27001999567338625	2.037320120259437	-0.3643817738447212	-2.3343787782680563	1.930089785073533	2.265808055619664	-0.2787657379066825	1.9574065055984404	0.009122377737214653	-0.2549535406349327	2.06204749611365	-0.567721808677716	-0.20528986481577904	2.0023331443323324	-0.6743148518965559	-0.23303228421564748	1.9299276039873952	-0.662782918372403
